# xmcd CD database file
#
# Track frame offsets:
#	150
#	13157
#	31070
#	46430
#	51305
#	63780
#	83235
#	98280
#	114977
#	129650
#	151200
#
# Disc length: 2321 seconds
#
# Revision: 8
# Processed by: cddbd v1.5.2PL0 Copyright (c) Steve Scherf et al.
# Submitted via: CDex 1.70beta3
#
DISCID=7e090f0b
DTITLE=ブリーフ&トランクス - ボクらのエキス
DYEAR=1999
DGENRE=JPop
TTITLE0=となりの柳橋
TTITLE1=ひとりのうた
TTITLE2=コンビニ
TTITLE3=小フーガハゲ短調
TTITLE4=のぞき部屋
TTITLE5=青のり～エキスバージョン～
TTITLE6=カテキン
TTITLE7=大切なもの
TTITLE8=シャラララ
TTITLE9=クラブ
TTITLE10=石焼イモ
EXTD=YEAR: 1999
EXTT0=
EXTT1=
EXTT2=
EXTT3=
EXTT4=
EXTT5=
EXTT6=
EXTT7=
EXTT8=
EXTT9=
EXTT10=
PLAYORDER=
